<svg width="61" height="60" xmlns="http://www.w3.org/2000/svg" xmlns:xlink="http://www.w3.org/1999/xlink" xml:space="preserve" overflow="hidden"><g transform="translate(-710 -581)"><path d="M35.2944 46.745 24.5375 46.745C23.5427 46.745 22.7362 47.5514 22.7362 48.5463 22.7362 49.5411 23.5427 50.3475 24.5375 50.3475L35.2944 50.3475C36.2892 50.3475 37.0956 49.5411 37.0956 48.5463 37.0956 47.5514 36.2892 46.745 35.2944 46.745Z" transform="matrix(1.01667 0 0 1 710 581)"/><path d="M29.9163 56.455C31.9589 56.4548 33.658 54.8839 33.8181 52.8475L26.0138 52.8475C26.1739 54.8841 27.8734 56.4551 29.9163 56.455Z" transform="matrix(1.01667 0 0 1 710 581)"/><path d="M45.5244 27.7962 45.5244 27.2563C45.3686 18.7308 38.4429 11.8848 29.9163 11.8275L29.9163 11.8275C21.3889 11.8841 14.4624 18.7302 14.3062 27.2563L14.3062 27.7962C14.3645 29.6453 14.7319 31.4716 15.3931 33.1994 16.0259 34.8299 16.9447 36.3343 18.1062 37.6419 19.535 39.2044 21.1019 42.2344 21.7625 43.5794 21.965 43.9875 22.3813 44.2456 22.8369 44.2456L36.9937 44.2456C37.4494 44.2454 37.8658 43.9874 38.0687 43.5794 38.7287 42.235 40.2956 39.2044 41.7244 37.6419 42.8859 36.3343 43.8047 34.8299 44.4375 33.1994 45.0985 31.4715 45.4658 29.6453 45.5244 27.7962ZM41.9225 27.7337C41.8682 29.1727 41.5777 30.5929 41.0625 31.9375 40.5863 33.1493 39.8992 34.2672 39.0331 35.2394 37.6571 36.8981 36.4786 38.7111 35.5212 40.6419L24.3075 40.6419C23.3504 38.7109 22.1718 36.8979 20.7956 35.2394 19.9295 34.2673 19.2426 33.1494 18.7669 31.9375 18.252 30.5933 17.9619 29.1734 17.9081 27.735L17.9081 27.285C18.0294 20.7294 23.3584 15.4676 29.915 15.4294L29.915 15.4294C36.4721 15.4673 41.8013 20.7301 41.9212 27.2863Z" transform="matrix(1.01667 0 0 1 710 581)"/><path d="M30.0387 9.375C30.7291 9.375 31.2887 8.81538 31.2887 8.125L31.2887 3.75C31.2887 3.05964 30.7291 2.5 30.0387 2.5 29.3484 2.5 28.7887 3.05964 28.7887 3.75L28.7887 8.125C28.7887 8.81538 29.3484 9.375 30.0387 9.375Z" transform="matrix(1.01667 0 0 1 710 581)"/><path d="M15.2038 14.875C15.6834 15.3716 16.4747 15.3853 16.9712 14.9057 17.4678 14.4261 17.4816 13.6348 17.002 13.1383 16.9919 13.1278 16.9817 13.1176 16.9712 13.1075L13.875 10.0112C13.3784 9.53162 12.5871 9.54537 12.1075 10.042 11.6396 10.5264 11.6396 11.2944 12.1075 11.7788Z" transform="matrix(1.01667 0 0 1 710 581)"/><path d="M44.0069 15.4756C44.3384 15.4756 44.6562 15.3438 44.8906 15.1094L47.9837 12.0156C48.4533 11.5096 48.4237 10.7186 47.9176 10.2491 47.4377 9.80387 46.6956 9.80425 46.2162 10.25L43.125 13.3419C42.6369 13.8301 42.6371 14.6216 43.1252 15.1096 43.3596 15.3439 43.6774 15.4756 44.0088 15.4756Z" transform="matrix(1.01667 0 0 1 710 581)"/><path d="M10.625 25.9375 6.25 25.9375C5.55964 25.9375 5 26.4971 5 27.1875 5 27.8779 5.55964 28.4375 6.25 28.4375L10.625 28.4375C11.3154 28.4375 11.875 27.8779 11.875 27.1875 11.875 26.4971 11.3154 25.9375 10.625 25.9375Z" transform="matrix(1.01667 0 0 1 710 581)"/><path d="M15.2038 39.46 12.11 42.5537C11.6017 43.0209 11.5684 43.8117 12.0356 44.3199 12.5027 44.8282 13.2934 44.8616 13.8018 44.3944 13.8272 44.3711 13.8516 44.3466 13.875 44.3213L16.9688 41.2275C17.4653 40.7479 17.4791 39.9566 16.9995 39.46 16.5199 38.9634 15.7286 38.9497 15.232 39.4292 15.2216 39.4393 15.2113 39.4496 15.2013 39.46Z" transform="matrix(1.01667 0 0 1 710 581)"/><path d="M44.8906 39.2231C44.4206 38.7176 43.6296 38.6888 43.124 39.1588 42.6184 39.6289 42.5896 40.4198 43.0597 40.9254 43.0807 40.9479 43.1024 40.9697 43.125 40.9906L46.2181 44.0837C46.7147 44.5634 47.506 44.5496 47.9856 44.053 48.4535 43.5686 48.4535 42.8006 47.9856 42.3162Z" transform="matrix(1.01667 0 0 1 710 581)"/><path d="M53.5938 25.895 49.2188 25.895C48.5284 25.895 47.9688 26.4546 47.9688 27.145 47.9688 27.8354 48.5284 28.395 49.2188 28.395L53.5938 28.395C54.2841 28.395 54.8438 27.8354 54.8438 27.145 54.8438 26.4546 54.2841 25.895 53.5938 25.895Z" transform="matrix(1.01667 0 0 1 710 581)"/></g></svg>